<?xml version="1.0" encoding="UTF-8" standalone="no"?>
<!DOCTYPE svg PUBLIC "-//W3C//DTD SVG 1.1//EN" "http://www.w3.org/Graphics/SVG/1.1/DTD/svg11.dtd">
<svg width="100%" height="100%" viewBox="0 0 2125 432" version="1.1" xmlns="http://www.w3.org/2000/svg" xmlns:xlink="http://www.w3.org/1999/xlink" xml:space="preserve" xmlns:serif="http://www.serif.com/" style="fill-rule:evenodd;clip-rule:evenodd;stroke-linejoin:round;stroke-miterlimit:2;">
    <g transform="matrix(1,0,0,1,-4294.14,-3373.74)">
        <g transform="matrix(0.325114,0,0,0.325114,5059.69,3347.16)">
            <g transform="matrix(250.56,0,0,250.56,1005,1359)">
                <path d="M0.203,-0L0.066,-0L0.066,-0.519L0.193,-0.519L0.193,-0.445C0.215,-0.48 0.235,-0.503 0.252,-0.514C0.27,-0.525 0.289,-0.53 0.312,-0.53C0.343,-0.53 0.373,-0.522 0.402,-0.504L0.359,-0.385C0.336,-0.4 0.315,-0.407 0.295,-0.407C0.276,-0.407 0.259,-0.402 0.246,-0.391C0.233,-0.381 0.222,-0.362 0.215,-0.334C0.207,-0.306 0.203,-0.248 0.203,-0.16L0.203,-0Z" style="fill:white;fill-rule:nonzero;"/>
            </g>
            <g transform="matrix(250.56,0,0,250.56,1115.04,1359)">
                <path d="M0.372,-0.165L0.509,-0.142C0.491,-0.092 0.463,-0.054 0.426,-0.028C0.388,-0.001 0.34,0.012 0.283,0.012C0.193,0.012 0.126,-0.018 0.083,-0.077C0.049,-0.124 0.032,-0.183 0.032,-0.255C0.032,-0.341 0.054,-0.409 0.099,-0.457C0.144,-0.506 0.201,-0.53 0.27,-0.53C0.347,-0.53 0.408,-0.505 0.452,-0.454C0.497,-0.403 0.518,-0.325 0.516,-0.22L0.172,-0.22C0.173,-0.179 0.184,-0.147 0.206,-0.125C0.227,-0.102 0.253,-0.091 0.285,-0.091C0.306,-0.091 0.324,-0.097 0.339,-0.108C0.354,-0.12 0.365,-0.139 0.372,-0.165ZM0.38,-0.304C0.379,-0.343 0.369,-0.374 0.349,-0.394C0.33,-0.415 0.306,-0.425 0.278,-0.425C0.248,-0.425 0.223,-0.414 0.204,-0.393C0.184,-0.371 0.174,-0.341 0.175,-0.304L0.38,-0.304Z" style="fill:white;fill-rule:nonzero;"/>
            </g>
            <g transform="matrix(250.56,0,0,250.56,1266.91,1359)">
                <path d="M0.174,-0.36L0.05,-0.383C0.064,-0.433 0.088,-0.47 0.122,-0.494C0.156,-0.518 0.207,-0.53 0.274,-0.53C0.336,-0.53 0.381,-0.523 0.411,-0.509C0.441,-0.494 0.462,-0.476 0.474,-0.453C0.487,-0.431 0.493,-0.39 0.493,-0.331L0.491,-0.17C0.491,-0.125 0.493,-0.091 0.498,-0.07C0.502,-0.048 0.51,-0.025 0.522,-0L0.387,-0C0.383,-0.009 0.379,-0.023 0.374,-0.041C0.371,-0.049 0.37,-0.054 0.369,-0.057C0.345,-0.034 0.32,-0.017 0.293,-0.005C0.267,0.006 0.238,0.012 0.208,0.012C0.155,0.012 0.113,-0.003 0.082,-0.032C0.051,-0.061 0.036,-0.097 0.036,-0.142C0.036,-0.171 0.043,-0.197 0.057,-0.22C0.071,-0.243 0.09,-0.26 0.115,-0.273C0.141,-0.285 0.177,-0.296 0.225,-0.305C0.289,-0.317 0.333,-0.328 0.358,-0.338L0.358,-0.352C0.358,-0.378 0.351,-0.397 0.338,-0.408C0.325,-0.42 0.301,-0.425 0.265,-0.425C0.24,-0.425 0.221,-0.42 0.208,-0.411C0.194,-0.401 0.183,-0.384 0.174,-0.36ZM0.358,-0.249C0.34,-0.243 0.313,-0.236 0.274,-0.228C0.236,-0.22 0.211,-0.212 0.2,-0.204C0.182,-0.191 0.173,-0.175 0.173,-0.156C0.173,-0.137 0.18,-0.12 0.194,-0.106C0.209,-0.092 0.227,-0.085 0.249,-0.085C0.274,-0.085 0.297,-0.093 0.32,-0.109C0.336,-0.122 0.347,-0.137 0.353,-0.155C0.356,-0.167 0.358,-0.189 0.358,-0.222L0.358,-0.249Z" style="fill:white;fill-rule:nonzero;"/>
            </g>
            <g transform="matrix(250.56,0,0,250.56,1418.79,1359)">
                <rect x="0.072" y="-0.716" width="0.137" height="0.716" style="fill:white;fill-rule:nonzero;"/>
            </g>
            <g transform="matrix(250.56,0,0,250.56,1583.08,1359)">
                <path d="M0.068,-0.519L0.196,-0.519L0.196,-0.442C0.212,-0.468 0.235,-0.49 0.263,-0.506C0.292,-0.522 0.323,-0.53 0.357,-0.53C0.418,-0.53 0.469,-0.507 0.511,-0.459C0.553,-0.412 0.574,-0.347 0.574,-0.262C0.574,-0.176 0.553,-0.108 0.51,-0.06C0.468,-0.012 0.417,0.012 0.356,0.012C0.328,0.012 0.302,0.006 0.279,-0.005C0.255,-0.017 0.231,-0.036 0.205,-0.064L0.205,0.197L0.068,0.197L0.068,-0.519ZM0.204,-0.268C0.204,-0.21 0.215,-0.167 0.238,-0.139C0.261,-0.111 0.29,-0.097 0.323,-0.097C0.355,-0.097 0.381,-0.11 0.402,-0.135C0.424,-0.161 0.434,-0.203 0.434,-0.261C0.434,-0.316 0.423,-0.356 0.401,-0.382C0.38,-0.409 0.353,-0.422 0.32,-0.422C0.287,-0.422 0.259,-0.409 0.237,-0.383C0.215,-0.357 0.204,-0.319 0.204,-0.268Z" style="fill:white;fill-rule:nonzero;"/>
            </g>
            <g transform="matrix(250.56,0,0,250.56,1748.66,1359)">
                <path d="M0.372,-0.165L0.509,-0.142C0.491,-0.092 0.463,-0.054 0.426,-0.028C0.388,-0.001 0.34,0.012 0.283,0.012C0.193,0.012 0.126,-0.018 0.083,-0.077C0.049,-0.124 0.032,-0.183 0.032,-0.255C0.032,-0.341 0.054,-0.409 0.099,-0.457C0.144,-0.506 0.201,-0.53 0.27,-0.53C0.347,-0.53 0.408,-0.505 0.452,-0.454C0.497,-0.403 0.518,-0.325 0.516,-0.22L0.172,-0.22C0.173,-0.179 0.184,-0.147 0.206,-0.125C0.227,-0.102 0.253,-0.091 0.285,-0.091C0.306,-0.091 0.324,-0.097 0.339,-0.108C0.354,-0.12 0.365,-0.139 0.372,-0.165ZM0.38,-0.304C0.379,-0.343 0.369,-0.374 0.349,-0.394C0.33,-0.415 0.306,-0.425 0.278,-0.425C0.248,-0.425 0.223,-0.414 0.204,-0.393C0.184,-0.371 0.174,-0.341 0.175,-0.304L0.38,-0.304Z" style="fill:white;fill-rule:nonzero;"/>
            </g>
            <g transform="matrix(250.56,0,0,250.56,1900.53,1359)">
                <path d="M0.04,-0.267C0.04,-0.312 0.051,-0.356 0.074,-0.399C0.096,-0.442 0.128,-0.474 0.169,-0.497C0.21,-0.519 0.256,-0.53 0.307,-0.53C0.386,-0.53 0.45,-0.505 0.5,-0.454C0.55,-0.403 0.575,-0.339 0.575,-0.261C0.575,-0.182 0.55,-0.117 0.499,-0.066C0.449,-0.014 0.385,0.012 0.308,0.012C0.261,0.012 0.215,0.001 0.172,-0.021C0.129,-0.042 0.096,-0.073 0.074,-0.115C0.051,-0.156 0.04,-0.207 0.04,-0.267ZM0.181,-0.259C0.181,-0.208 0.193,-0.168 0.217,-0.141C0.242,-0.114 0.272,-0.1 0.308,-0.1C0.343,-0.1 0.373,-0.114 0.398,-0.141C0.422,-0.168 0.434,-0.208 0.434,-0.26C0.434,-0.311 0.422,-0.35 0.398,-0.377C0.373,-0.405 0.343,-0.418 0.308,-0.418C0.272,-0.418 0.242,-0.405 0.217,-0.377C0.193,-0.35 0.181,-0.311 0.181,-0.259Z" style="fill:white;fill-rule:nonzero;"/>
            </g>
            <g transform="matrix(250.56,0,0,250.56,2066.11,1359)">
                <path d="M0.068,-0.519L0.196,-0.519L0.196,-0.442C0.212,-0.468 0.235,-0.49 0.263,-0.506C0.292,-0.522 0.323,-0.53 0.357,-0.53C0.418,-0.53 0.469,-0.507 0.511,-0.459C0.553,-0.412 0.574,-0.347 0.574,-0.262C0.574,-0.176 0.553,-0.108 0.51,-0.06C0.468,-0.012 0.417,0.012 0.356,0.012C0.328,0.012 0.302,0.006 0.279,-0.005C0.255,-0.017 0.231,-0.036 0.205,-0.064L0.205,0.197L0.068,0.197L0.068,-0.519ZM0.204,-0.268C0.204,-0.21 0.215,-0.167 0.238,-0.139C0.261,-0.111 0.29,-0.097 0.323,-0.097C0.355,-0.097 0.381,-0.11 0.402,-0.135C0.424,-0.161 0.434,-0.203 0.434,-0.261C0.434,-0.316 0.423,-0.356 0.401,-0.382C0.38,-0.409 0.353,-0.422 0.32,-0.422C0.287,-0.422 0.259,-0.409 0.237,-0.383C0.215,-0.357 0.204,-0.319 0.204,-0.268Z" style="fill:white;fill-rule:nonzero;"/>
            </g>
            <g transform="matrix(250.56,0,0,250.56,2231.69,1359)">
                <rect x="0.072" y="-0.716" width="0.137" height="0.716" style="fill:white;fill-rule:nonzero;"/>
            </g>
            <g transform="matrix(250.56,0,0,250.56,2313.84,1359)">
                <path d="M0.372,-0.165L0.509,-0.142C0.491,-0.092 0.463,-0.054 0.426,-0.028C0.388,-0.001 0.34,0.012 0.283,0.012C0.193,0.012 0.126,-0.018 0.083,-0.077C0.049,-0.124 0.032,-0.183 0.032,-0.255C0.032,-0.341 0.054,-0.409 0.099,-0.457C0.144,-0.506 0.201,-0.53 0.27,-0.53C0.347,-0.53 0.408,-0.505 0.452,-0.454C0.497,-0.403 0.518,-0.325 0.516,-0.22L0.172,-0.22C0.173,-0.179 0.184,-0.147 0.206,-0.125C0.227,-0.102 0.253,-0.091 0.285,-0.091C0.306,-0.091 0.324,-0.097 0.339,-0.108C0.354,-0.12 0.365,-0.139 0.372,-0.165ZM0.38,-0.304C0.379,-0.343 0.369,-0.374 0.349,-0.394C0.33,-0.415 0.306,-0.425 0.278,-0.425C0.248,-0.425 0.223,-0.414 0.204,-0.393C0.184,-0.371 0.174,-0.341 0.175,-0.304L0.38,-0.304Z" style="fill:white;fill-rule:nonzero;"/>
            </g>
            <g transform="matrix(250.56,0,0,250.56,2547.86,1359)">
                <path d="M0.203,-0L0.066,-0L0.066,-0.519L0.193,-0.519L0.193,-0.445C0.215,-0.48 0.235,-0.503 0.252,-0.514C0.27,-0.525 0.289,-0.53 0.312,-0.53C0.343,-0.53 0.373,-0.522 0.402,-0.504L0.359,-0.385C0.336,-0.4 0.315,-0.407 0.295,-0.407C0.276,-0.407 0.259,-0.402 0.246,-0.391C0.233,-0.381 0.222,-0.362 0.215,-0.334C0.207,-0.306 0.203,-0.248 0.203,-0.16L0.203,-0Z" style="fill:white;fill-rule:nonzero;"/>
            </g>
            <g transform="matrix(250.56,0,0,250.56,2657.89,1359)">
                <path d="M0.372,-0.165L0.509,-0.142C0.491,-0.092 0.463,-0.054 0.426,-0.028C0.388,-0.001 0.34,0.012 0.283,0.012C0.193,0.012 0.126,-0.018 0.083,-0.077C0.049,-0.124 0.032,-0.183 0.032,-0.255C0.032,-0.341 0.054,-0.409 0.099,-0.457C0.144,-0.506 0.201,-0.53 0.27,-0.53C0.347,-0.53 0.408,-0.505 0.452,-0.454C0.497,-0.403 0.518,-0.325 0.516,-0.22L0.172,-0.22C0.173,-0.179 0.184,-0.147 0.206,-0.125C0.227,-0.102 0.253,-0.091 0.285,-0.091C0.306,-0.091 0.324,-0.097 0.339,-0.108C0.354,-0.12 0.365,-0.139 0.372,-0.165ZM0.38,-0.304C0.379,-0.343 0.369,-0.374 0.349,-0.394C0.33,-0.415 0.306,-0.425 0.278,-0.425C0.248,-0.425 0.223,-0.414 0.204,-0.393C0.184,-0.371 0.174,-0.341 0.175,-0.304L0.38,-0.304Z" style="fill:white;fill-rule:nonzero;"/>
            </g>
            <g transform="matrix(250.56,0,0,250.56,2809.77,1359)">
                <path d="M0.174,-0.36L0.05,-0.383C0.064,-0.433 0.088,-0.47 0.122,-0.494C0.156,-0.518 0.207,-0.53 0.274,-0.53C0.336,-0.53 0.381,-0.523 0.411,-0.509C0.441,-0.494 0.462,-0.476 0.474,-0.453C0.487,-0.431 0.493,-0.39 0.493,-0.331L0.491,-0.17C0.491,-0.125 0.493,-0.091 0.498,-0.07C0.502,-0.048 0.51,-0.025 0.522,-0L0.387,-0C0.383,-0.009 0.379,-0.023 0.374,-0.041C0.371,-0.049 0.37,-0.054 0.369,-0.057C0.345,-0.034 0.32,-0.017 0.293,-0.005C0.267,0.006 0.238,0.012 0.208,0.012C0.155,0.012 0.113,-0.003 0.082,-0.032C0.051,-0.061 0.036,-0.097 0.036,-0.142C0.036,-0.171 0.043,-0.197 0.057,-0.22C0.071,-0.243 0.09,-0.26 0.115,-0.273C0.141,-0.285 0.177,-0.296 0.225,-0.305C0.289,-0.317 0.333,-0.328 0.358,-0.338L0.358,-0.352C0.358,-0.378 0.351,-0.397 0.338,-0.408C0.325,-0.42 0.301,-0.425 0.265,-0.425C0.24,-0.425 0.221,-0.42 0.208,-0.411C0.194,-0.401 0.183,-0.384 0.174,-0.36ZM0.358,-0.249C0.34,-0.243 0.313,-0.236 0.274,-0.228C0.236,-0.22 0.211,-0.212 0.2,-0.204C0.182,-0.191 0.173,-0.175 0.173,-0.156C0.173,-0.137 0.18,-0.12 0.194,-0.106C0.209,-0.092 0.227,-0.085 0.249,-0.085C0.274,-0.085 0.297,-0.093 0.32,-0.109C0.336,-0.122 0.347,-0.137 0.353,-0.155C0.356,-0.167 0.358,-0.189 0.358,-0.222L0.358,-0.249Z" style="fill:white;fill-rule:nonzero;"/>
            </g>
            <g transform="matrix(250.56,0,0,250.56,2961.65,1359)">
                <rect x="0.072" y="-0.716" width="0.137" height="0.716" style="fill:white;fill-rule:nonzero;"/>
            </g>
            <g transform="matrix(250.56,0,0,250.56,3125.93,1359)">
                <path d="M0.547,-0L0.42,-0L0.42,-0.076C0.399,-0.047 0.374,-0.024 0.345,-0.01C0.316,0.004 0.287,0.012 0.258,0.012C0.198,0.012 0.147,-0.012 0.105,-0.06C0.062,-0.108 0.041,-0.175 0.041,-0.261C0.041,-0.349 0.062,-0.416 0.103,-0.462C0.144,-0.507 0.197,-0.53 0.26,-0.53C0.318,-0.53 0.368,-0.506 0.41,-0.458L0.41,-0.716L0.547,-0.716L0.547,-0ZM0.181,-0.271C0.181,-0.215 0.189,-0.175 0.204,-0.15C0.226,-0.115 0.257,-0.097 0.297,-0.097C0.328,-0.097 0.355,-0.11 0.377,-0.137C0.4,-0.164 0.411,-0.204 0.411,-0.257C0.411,-0.317 0.4,-0.36 0.378,-0.386C0.357,-0.412 0.329,-0.425 0.296,-0.425C0.263,-0.425 0.236,-0.412 0.214,-0.386C0.192,-0.361 0.181,-0.322 0.181,-0.271Z" style="fill:white;fill-rule:nonzero;"/>
            </g>
            <g transform="matrix(250.56,0,0,250.56,3291.51,1359)">
                <path d="M0.174,-0.36L0.05,-0.383C0.064,-0.433 0.088,-0.47 0.122,-0.494C0.156,-0.518 0.207,-0.53 0.274,-0.53C0.336,-0.53 0.381,-0.523 0.411,-0.509C0.441,-0.494 0.462,-0.476 0.474,-0.453C0.487,-0.431 0.493,-0.39 0.493,-0.331L0.491,-0.17C0.491,-0.125 0.493,-0.091 0.498,-0.07C0.502,-0.048 0.51,-0.025 0.522,-0L0.387,-0C0.383,-0.009 0.379,-0.023 0.374,-0.041C0.371,-0.049 0.37,-0.054 0.369,-0.057C0.345,-0.034 0.32,-0.017 0.293,-0.005C0.267,0.006 0.238,0.012 0.208,0.012C0.155,0.012 0.113,-0.003 0.082,-0.032C0.051,-0.061 0.036,-0.097 0.036,-0.142C0.036,-0.171 0.043,-0.197 0.057,-0.22C0.071,-0.243 0.09,-0.26 0.115,-0.273C0.141,-0.285 0.177,-0.296 0.225,-0.305C0.289,-0.317 0.333,-0.328 0.358,-0.338L0.358,-0.352C0.358,-0.378 0.351,-0.397 0.338,-0.408C0.325,-0.42 0.301,-0.425 0.265,-0.425C0.24,-0.425 0.221,-0.42 0.208,-0.411C0.194,-0.401 0.183,-0.384 0.174,-0.36ZM0.358,-0.249C0.34,-0.243 0.313,-0.236 0.274,-0.228C0.236,-0.22 0.211,-0.212 0.2,-0.204C0.182,-0.191 0.173,-0.175 0.173,-0.156C0.173,-0.137 0.18,-0.12 0.194,-0.106C0.209,-0.092 0.227,-0.085 0.249,-0.085C0.274,-0.085 0.297,-0.093 0.32,-0.109C0.336,-0.122 0.347,-0.137 0.353,-0.155C0.356,-0.167 0.358,-0.189 0.358,-0.222L0.358,-0.249Z" style="fill:white;fill-rule:nonzero;"/>
            </g>
            <g transform="matrix(250.56,0,0,250.56,3443.39,1359)">
                <path d="M0.31,-0.519L0.31,-0.409L0.216,-0.409L0.216,-0.2C0.216,-0.158 0.217,-0.133 0.219,-0.126C0.22,-0.119 0.224,-0.113 0.231,-0.109C0.237,-0.104 0.245,-0.102 0.254,-0.102C0.267,-0.102 0.285,-0.106 0.309,-0.115L0.321,-0.009C0.289,0.005 0.253,0.012 0.212,0.012C0.188,0.012 0.165,0.008 0.146,-0.001C0.126,-0.009 0.111,-0.02 0.102,-0.033C0.093,-0.046 0.086,-0.064 0.083,-0.086C0.08,-0.102 0.078,-0.135 0.078,-0.183L0.078,-0.409L0.015,-0.409L0.015,-0.519L0.078,-0.519L0.078,-0.622L0.216,-0.702L0.216,-0.519L0.31,-0.519Z" style="fill:white;fill-rule:nonzero;"/>
            </g>
            <g transform="matrix(250.56,0,0,250.56,3539.35,1359)">
                <path d="M0.372,-0.165L0.509,-0.142C0.491,-0.092 0.463,-0.054 0.426,-0.028C0.388,-0.001 0.34,0.012 0.283,0.012C0.193,0.012 0.126,-0.018 0.083,-0.077C0.049,-0.124 0.032,-0.183 0.032,-0.255C0.032,-0.341 0.054,-0.409 0.099,-0.457C0.144,-0.506 0.201,-0.53 0.27,-0.53C0.347,-0.53 0.408,-0.505 0.452,-0.454C0.497,-0.403 0.518,-0.325 0.516,-0.22L0.172,-0.22C0.173,-0.179 0.184,-0.147 0.206,-0.125C0.227,-0.102 0.253,-0.091 0.285,-0.091C0.306,-0.091 0.324,-0.097 0.339,-0.108C0.354,-0.12 0.365,-0.139 0.372,-0.165ZM0.38,-0.304C0.379,-0.343 0.369,-0.374 0.349,-0.394C0.33,-0.415 0.306,-0.425 0.278,-0.425C0.248,-0.425 0.223,-0.414 0.204,-0.393C0.184,-0.371 0.174,-0.341 0.175,-0.304L0.38,-0.304Z" style="fill:white;fill-rule:nonzero;"/>
            </g>
            <g transform="matrix(250.56,0,0,250.56,3691.23,1359)">
                <path d="M0.023,-0.148L0.161,-0.169C0.167,-0.142 0.179,-0.122 0.197,-0.108C0.215,-0.094 0.24,-0.087 0.272,-0.087C0.307,-0.087 0.334,-0.094 0.352,-0.107C0.364,-0.116 0.37,-0.128 0.37,-0.144C0.37,-0.154 0.367,-0.163 0.36,-0.169C0.354,-0.176 0.338,-0.182 0.314,-0.188C0.204,-0.212 0.134,-0.234 0.104,-0.254C0.063,-0.282 0.042,-0.321 0.042,-0.371C0.042,-0.416 0.06,-0.454 0.096,-0.484C0.131,-0.515 0.186,-0.53 0.261,-0.53C0.332,-0.53 0.384,-0.519 0.419,-0.496C0.453,-0.472 0.477,-0.438 0.49,-0.393L0.361,-0.369C0.355,-0.389 0.345,-0.405 0.329,-0.416C0.314,-0.426 0.292,-0.432 0.263,-0.432C0.227,-0.432 0.201,-0.427 0.186,-0.417C0.175,-0.409 0.17,-0.4 0.17,-0.389C0.17,-0.379 0.174,-0.371 0.184,-0.364C0.196,-0.355 0.239,-0.342 0.312,-0.325C0.385,-0.309 0.436,-0.288 0.465,-0.264C0.493,-0.24 0.508,-0.206 0.508,-0.162C0.508,-0.115 0.488,-0.074 0.448,-0.04C0.409,-0.005 0.35,0.012 0.272,0.012C0.201,0.012 0.145,-0.003 0.104,-0.031C0.063,-0.06 0.036,-0.099 0.023,-0.148Z" style="fill:white;fill-rule:nonzero;"/>
            </g>
        </g>
        <g transform="matrix(0.249441,0,0,0.249441,6054.54,3094.18)">
            <g transform="matrix(332.861,0,0,332.861,1005,1359)">
                <path d="M0.259,-0L0.259,-0.631L0.023,-0.631L0.023,-0.716L0.591,-0.716L0.591,-0.631L0.354,-0.631L0.354,-0L0.259,-0Z" style="fill:white;fill-rule:nonzero;"/>
            </g>
            <g transform="matrix(332.861,0,0,332.861,1208.32,1359)">
                <path d="M0.074,-0L0.074,-0.716L0.217,-0.716L0.386,-0.209C0.402,-0.162 0.413,-0.126 0.42,-0.103C0.429,-0.129 0.441,-0.167 0.458,-0.218L0.63,-0.716L0.757,-0.716L0.757,-0L0.666,-0L0.666,-0.599L0.458,-0L0.373,-0L0.166,-0.609L0.166,-0L0.074,-0Z" style="fill:white;fill-rule:nonzero;"/>
            </g>
        </g>
        <g transform="matrix(0.279323,0,0,0.279323,3990.14,-5941.22)">
            <path d="M1088.36,34238.7L1278.47,34209.7C1286.56,34246.6 1302.97,34274.6 1327.69,34293.7C1352.41,34312.8 1387.02,34322.3 1431.51,34322.3C1480.5,34322.3 1517.35,34313.3 1542.07,34295.4C1558.7,34282.8 1567.02,34265.9 1567.02,34244.8C1567.02,34230.4 1562.52,34218.5 1553.53,34209.1C1544.1,34200.1 1522.97,34191.8 1490.16,34184.1C1337.35,34150.4 1240.5,34119.6 1199.6,34091.8C1142.97,34053.1 1114.65,33999.4 1114.65,33930.6C1114.65,33868.6 1139.15,33816.5 1188.14,33774.2C1237.13,33732 1313.08,33710.9 1416,33710.9C1513.98,33710.9 1586.79,33726.8 1634.43,33758.7C1682.08,33790.6 1714.88,33837.8 1732.86,33900.3L1554.21,33933.3C1546.57,33905.5 1532.07,33884.1 1510.72,33869.3C1489.38,33854.5 1458.93,33847 1419.38,33847C1369.49,33847 1333.76,33854 1312.18,33867.9C1297.8,33877.8 1290.61,33890.6 1290.61,33906.4C1290.61,33919.8 1296.9,33931.3 1309.49,33940.7C1326.57,33953.3 1385.55,33971.1 1486.45,33994C1587.35,34016.9 1657.81,34045 1697.81,34078.3C1737.36,34112 1757.13,34159 1757.13,34219.2C1757.13,34284.8 1729.72,34341.2 1674.88,34388.4C1620.05,34435.6 1538.93,34459.2 1431.51,34459.2C1333.98,34459.2 1256.79,34439.4 1199.93,34399.9C1143.08,34360.3 1105.89,34306.6 1088.36,34238.7Z" style="fill:rgb(229,37,132);fill-rule:nonzero;"/>
        </g>
        <g transform="matrix(0.279323,0,0,0.279323,3990.14,-5941.22)">
            <path d="M2064.55,33945.5L1892.64,33914.5C1911.97,33845.2 1945.22,33794 1992.41,33760.7C2039.61,33727.5 2109.72,33710.9 2202.76,33710.9C2287.25,33710.9 2350.17,33720.9 2391.52,33740.9C2432.87,33760.9 2461.97,33786.3 2478.83,33817C2495.68,33847.8 2504.11,33904.3 2504.11,33986.6L2502.08,34207.7C2502.08,34270.6 2505.12,34317 2511.18,34346.9C2517.25,34376.8 2528.6,34408.8 2545.23,34443L2357.81,34443C2352.87,34430.4 2346.8,34411.8 2339.61,34387C2336.46,34375.8 2334.22,34368.4 2332.87,34364.8C2300.51,34396.3 2265.9,34419.9 2229.05,34435.6C2192.19,34451.3 2152.87,34459.2 2111.07,34459.2C2037.36,34459.2 1979.27,34439.2 1936.8,34399.2C1894.32,34359.2 1873.09,34308.6 1873.09,34247.5C1873.09,34207 1882.75,34171 1902.08,34139.3C1921.4,34107.6 1948.48,34083.3 1983.31,34066.5C2018.15,34049.6 2068.37,34034.9 2133.99,34022.3C2222.53,34005.7 2283.88,33990.2 2318.04,33975.8L2318.04,33956.9C2318.04,33920.5 2309.05,33894.6 2291.07,33879.1C2273.09,33863.6 2239.16,33855.8 2189.27,33855.8C2155.56,33855.8 2129.27,33862.4 2110.39,33875.7C2091.52,33888.9 2076.24,33912.2 2064.55,33945.5ZM2318.04,34099.2C2293.77,34107.3 2255.34,34116.9 2202.76,34128.2C2150.17,34139.4 2115.79,34150.4 2099.61,34161.2C2074.89,34178.7 2062.53,34201 2062.53,34227.9C2062.53,34254.5 2072.42,34277.4 2092.19,34296.7C2111.97,34316 2137.14,34325.7 2167.7,34325.7C2201.86,34325.7 2234.44,34314.5 2265.45,34292C2288.37,34274.9 2303.43,34254 2310.62,34229.3C2315.57,34213.1 2318.04,34182.3 2318.04,34136.9L2318.04,34099.2Z" style="fill:rgb(229,37,132);fill-rule:nonzero;"/>
        </g>
        <g transform="matrix(0.279323,0,0,0.279323,3990.14,-5941.22)">
            <path d="M3162.09,34443L3162.09,34335.8C3136.02,34374 3101.75,34404.1 3059.28,34426.1C3016.81,34448.2 2971.98,34459.2 2924.78,34459.2C2876.7,34459.2 2833.55,34448.6 2795.35,34427.5C2757.14,34406.4 2729.5,34376.7 2712.42,34338.5C2695.34,34300.3 2686.8,34247.5 2686.8,34180.1L2686.8,33727L2876.24,33727L2876.24,34056C2876.24,34156.7 2879.73,34218.4 2886.7,34241.1C2893.66,34263.8 2906.36,34281.8 2924.78,34295C2943.21,34308.3 2966.58,34314.9 2994.9,34314.9C3027.26,34314.9 3056.25,34306 3081.87,34288.3C3107.48,34270.5 3125.01,34248.5 3134.45,34222.2C3143.89,34195.9 3148.61,34131.5 3148.61,34029.1L3148.61,33727L3338.05,33727L3338.05,34443L3162.09,34443Z" style="fill:rgb(229,37,132);fill-rule:nonzero;"/>
        </g>
        <g transform="matrix(0.279323,0,0,0.279323,3990.14,-5941.22)">
            <path d="M4158.51,33938.7L3971.76,33972.4C3965.47,33935.1 3951.2,33907 3928.95,33888.2C3906.71,33869.3 3877.83,33859.8 3842.32,33859.8C3795.13,33859.8 3757.49,33876.1 3729.4,33908.7C3701.31,33941.3 3687.27,33995.8 3687.27,34072.2C3687.27,34157.2 3701.54,34217.2 3730.08,34252.2C3758.62,34287.3 3796.93,34304.8 3845.02,34304.8C3880.98,34304.8 3910.41,34294.6 3933.34,34274.1C3956.26,34253.7 3972.44,34218.5 3981.88,34168.6L4167.94,34200.3C4148.62,34285.7 4111.54,34350.2 4056.71,34393.8C4001.88,34437.4 3928.39,34459.2 3836.26,34459.2C3731.54,34459.2 3648.05,34426.1 3585.8,34360.1C3523.56,34294 3492.43,34202.5 3492.43,34085.7C3492.43,33967.5 3523.67,33875.5 3586.14,33809.6C3648.61,33743.8 3733.11,33710.9 3839.63,33710.9C3926.82,33710.9 3996.15,33729.6 4047.61,33767.2C4099.07,33804.7 4136.03,33861.9 4158.51,33938.7Z" style="fill:rgb(229,37,132);fill-rule:nonzero;"/>
        </g>
        <g transform="matrix(0.279323,0,0,0.279323,3990.14,-5941.22)">
            <path d="M4212.44,33727L4414.02,33727L4585.25,34235.4L4752.45,33727L4948.63,33727L4695.82,34416L4650.65,34540.8C4634.02,34582.6 4618.18,34614.5 4603.12,34636.5C4588.06,34658.5 4570.76,34676.4 4551.21,34690.1C4531.66,34703.8 4507.61,34714.5 4479.07,34722.1C4450.53,34729.7 4418.28,34733.6 4382.33,34733.6C4345.93,34733.6 4310.19,34729.7 4275.14,34722.1L4258.28,34573.8C4287.95,34579.6 4314.69,34582.6 4338.51,34582.6C4382.56,34582.6 4415.14,34569.6 4436.26,34543.8C4457.39,34517.9 4473.57,34485 4484.8,34445L4212.44,33727Z" style="fill:rgb(229,37,132);fill-rule:nonzero;"/>
        </g>
        <g transform="matrix(0.279323,0,0,0.279323,3990.14,-5941.22)">
            <path d="M5526.39,34443L5526.39,34352.7C5480.99,34423.7 5414.25,34459.2 5326.16,34459.2C5269.08,34459.2 5216.61,34443.4 5168.74,34412C5120.88,34380.5 5083.8,34336.6 5057.51,34280.2C5031.21,34223.8 5018.07,34159 5018.07,34085.7C5018.07,34014.2 5029.98,33949.4 5053.8,33891.2C5077.62,33833 5113.35,33788.4 5160.99,33757.4C5208.63,33726.4 5261.89,33710.9 5320.77,33710.9C5363.91,33710.9 5402.34,33720 5436.05,33738.2C5469.76,33756.4 5497.17,33780.1 5518.3,33809.3L5518.3,33454.7L5638.97,33454.7L5638.97,34443L5526.39,34443ZM5142.79,34085.7C5142.79,34177.4 5162.11,34245.9 5200.77,34291.3C5239.42,34336.7 5285.04,34359.4 5337.62,34359.4C5390.66,34359.4 5435.71,34337.7 5472.79,34294.3C5509.87,34251 5528.41,34184.8 5528.41,34095.8C5528.41,33997.8 5509.53,33925.9 5471.78,33880.1C5434.03,33834.2 5387.51,33811.3 5332.23,33811.3C5278.3,33811.3 5233.24,33833.3 5197.06,33877.4C5160.88,33921.4 5142.79,33990.9 5142.79,34085.7Z" style="fill:white;fill-rule:nonzero;"/>
        </g>
        <g transform="matrix(0.279323,0,0,0.279323,3990.14,-5941.22)">
            <path d="M6296.96,34354.7C6252.01,34392.9 6208.76,34419.9 6167.18,34435.6C6125.61,34451.3 6081,34459.2 6033.36,34459.2C5954.71,34459.2 5894.26,34440 5852.01,34401.5C5809.76,34363.1 5788.64,34314 5788.64,34254.2C5788.64,34219.2 5796.62,34187.2 5812.57,34158.2C5828.53,34129.2 5849.43,34105.9 5875.27,34088.4C5901.11,34070.9 5930.21,34057.6 5962.57,34048.6C5986.39,34042.3 6022.35,34036.3 6070.44,34030.4C6168.42,34018.7 6240.55,34004.8 6286.85,33988.6C6287.3,33972 6287.52,33961.4 6287.52,33956.9C6287.52,33907.5 6276.06,33872.7 6253.14,33852.4C6222.13,33825 6176.06,33811.3 6114.93,33811.3C6057.86,33811.3 6015.72,33821.3 5988.53,33841.3C5961.34,33861.3 5941.22,33896.7 5928.19,33947.5L5809.54,33931.3C5820.32,33880.5 5838.08,33839.5 5862.8,33808.3C5887.52,33777 5923.25,33753 5969.99,33736.1C6016.73,33719.3 6070.89,33710.9 6132.46,33710.9C6193.59,33710.9 6243.25,33718 6281.45,33732.4C6319.65,33746.8 6347.75,33764.9 6365.72,33786.7C6383.7,33808.5 6396.28,33836 6403.48,33869.3C6407.52,33890 6409.54,33927.3 6409.54,33981.2L6409.54,34143C6409.54,34255.8 6412.13,34327.2 6417.3,34357C6422.47,34386.9 6432.69,34415.6 6447.97,34443L6321.23,34443C6308.64,34417.8 6300.55,34388.4 6296.96,34354.7ZM6286.85,34083.7C6242.8,34101.6 6176.73,34116.9 6088.64,34129.5C6038.75,34136.7 6003.47,34144.8 5982.8,34153.8C5962.12,34162.8 5946.17,34175.9 5934.93,34193.2C5923.7,34210.5 5918.08,34229.7 5918.08,34250.9C5918.08,34283.2 5930.32,34310.2 5954.82,34331.8C5979.31,34353.3 6015.16,34364.1 6062.35,34364.1C6109.09,34364.1 6150.66,34353.9 6187.07,34333.4C6223.47,34313 6250.22,34285 6267.3,34249.5C6280.33,34222.1 6286.85,34181.6 6286.85,34128.2L6286.85,34083.7Z" style="fill:white;fill-rule:nonzero;"/>
        </g>
        <g transform="matrix(0.279323,0,0,0.279323,3990.14,-5941.22)">
            <path d="M6862.58,34334.5L6880.11,34441.7C6845.95,34448.8 6815.39,34452.4 6788.43,34452.4C6744.38,34452.4 6710.22,34445.5 6685.95,34431.5C6661.68,34417.6 6644.6,34399.3 6634.72,34376.6C6624.83,34353.9 6619.88,34306.1 6619.88,34233.3L6619.88,33821.4L6530.89,33821.4L6530.89,33727L6619.88,33727L6619.88,33549.7L6740.56,33476.9L6740.56,33727L6862.58,33727L6862.58,33821.4L6740.56,33821.4L6740.56,34240.1C6740.56,34274.7 6742.69,34296.9 6746.96,34306.8C6751.23,34316.7 6758.2,34324.6 6767.86,34330.4C6777.53,34336.3 6791.35,34339.2 6809.32,34339.2C6822.81,34339.2 6840.56,34337.6 6862.58,34334.5Z" style="fill:white;fill-rule:nonzero;"/>
        </g>
        <g transform="matrix(0.279323,0,0,0.279323,3990.14,-5941.22)">
            <path d="M7471.35,34212.4L7596.75,34227.9C7576.97,34301.2 7540.34,34358.1 7486.86,34398.5C7433.38,34439 7365.06,34459.2 7281.91,34459.2C7177.19,34459.2 7094.16,34426.9 7032.81,34362.4C6971.46,34297.9 6940.79,34207.5 6940.79,34091.1C6940.79,33970.6 6971.8,33877.2 7033.82,33810.6C7095.84,33744.1 7176.29,33710.9 7275.17,33710.9C7370.9,33710.9 7449.11,33743.4 7509.78,33808.6C7570.46,33873.8 7600.79,33965.5 7600.79,34083.7C7600.79,34090.9 7600.57,34101.6 7600.12,34116L7066.18,34116C7070.68,34194.7 7092.92,34254.9 7132.92,34296.7C7172.92,34338.5 7222.81,34359.4 7282.59,34359.4C7327.08,34359.4 7365.06,34347.7 7396.52,34324.3C7427.98,34301 7452.93,34263.7 7471.35,34212.4ZM7072.92,34016.3L7472.7,34016.3C7467.31,33956 7452.03,33910.9 7426.86,33880.7C7388.21,33834 7338.09,33810.6 7276.52,33810.6C7220.79,33810.6 7173.94,33829.3 7135.96,33866.6C7097.98,33903.9 7076.97,33953.8 7072.92,34016.3Z" style="fill:white;fill-rule:nonzero;"/>
        </g>
        <g transform="matrix(0.279323,0,0,0.279323,3990.14,-5941.22)">
            <path d="M7700.57,34229.3L7820.57,34210.4C7827.31,34258.5 7846.08,34295.4 7876.86,34321C7907.65,34346.6 7950.69,34359.4 8005.97,34359.4C8061.7,34359.4 8103.05,34348.1 8130.01,34325.4C8156.98,34302.7 8170.46,34276 8170.46,34245.5C8170.46,34218.1 8158.55,34196.5 8134.73,34180.8C8118.1,34170 8076.75,34156.3 8010.69,34139.6C7921.7,34117.2 7860.01,34097.7 7825.63,34081.3C7791.24,34064.9 7765.18,34042.2 7747.42,34013.2C7729.67,33984.2 7720.8,33952.2 7720.8,33917.2C7720.8,33885.2 7728.1,33855.7 7742.7,33828.5C7757.31,33801.3 7777.2,33778.7 7802.37,33760.7C7821.24,33746.8 7846.98,33735 7879.56,33725.4C7912.15,33715.7 7947.09,33710.9 7984.39,33710.9C8040.57,33710.9 8089.9,33718.9 8132.37,33735.1C8174.85,33751.3 8206.19,33773.2 8226.42,33800.9C8246.64,33828.5 8260.58,33865.5 8268.22,33911.8L8149.56,33927.9C8144.17,33891.1 8128.55,33862.3 8102.71,33841.6C8076.87,33821 8040.35,33810.6 7993.16,33810.6C7937.43,33810.6 7897.65,33819.8 7873.83,33838.3C7850.01,33856.7 7838.1,33878.3 7838.1,33903C7838.1,33918.7 7843.04,33932.9 7852.93,33945.5C7862.82,33958.5 7878.32,33969.3 7899.45,33977.8C7911.58,33982.3 7947.31,33992.7 8006.64,34008.8C8092.48,34031.8 8152.37,34050.5 8186.31,34065.1C8220.24,34079.7 8246.87,34101 8266.19,34128.8C8285.52,34156.7 8295.18,34191.3 8295.18,34232.7C8295.18,34273.1 8283.39,34311.2 8259.79,34346.9C8236.19,34382.7 8202.15,34410.3 8157.65,34429.9C8113.16,34449.4 8062.82,34459.2 8006.64,34459.2C7913.61,34459.2 7842.71,34439.9 7793.94,34401.2C7745.18,34362.6 7714.05,34305.2 7700.57,34229.3Z" style="fill:white;fill-rule:nonzero;"/>
        </g>
    </g>
</svg>
