<svg xmlns="http://www.w3.org/2000/svg" width="26" height="26" viewBox="0 0 26 26">
    <g fill="#333" fill-rule="evenodd">
        <path
            d="M25.395 2.892L3.758 24.529c-.661.662-1.732.672-2.38.024-.649-.648-.638-1.72.023-2.38L23.038.534c.662-.661 1.733-.672 2.381-.024.648.649.638 1.72-.024 2.381z"/>
        <path
            d="M3.758.535l21.637 21.637c.662.662.672 1.733.024 2.381-.648.648-1.72.638-2.38-.024L1.4 2.892C.74 2.231.729 1.16 1.377.512c.649-.649 1.72-.638 2.381.023z"/>
    </g>
</svg>
