<svg width="16" height="16" viewBox="0 0 16 16" fill="none" xmlns="http://www.w3.org/2000/svg">
<path fill-rule="evenodd" clip-rule="evenodd" d="M3.20001 3.99999C2.77566 3.99999 2.36869 4.16856 2.06864 4.46862C1.76858 4.76868 1.60001 5.17565 1.60001 5.59999V12C1.60001 12.4243 1.76858 12.8313 2.06864 13.1314C2.36869 13.4314 2.77566 13.6 3.20001 13.6H12.8C13.2244 13.6 13.6313 13.4314 13.9314 13.1314C14.2314 12.8313 14.4 12.4243 14.4 12V5.59999C14.4 5.17565 14.2314 4.76868 13.9314 4.46862C13.6313 4.16856 13.2244 3.99999 12.8 3.99999H11.5312C11.319 3.99995 11.1156 3.91563 10.9656 3.76559L10.0688 2.86879C9.76882 2.56871 9.36192 2.40008 8.93761 2.39999H7.06241C6.63809 2.40008 6.23119 2.56871 5.93121 2.86879L5.03441 3.76559C4.88441 3.91563 4.68096 3.99995 4.46881 3.99999H3.20001ZM8.00001 11.2C8.31518 11.2 8.62726 11.1379 8.91845 11.0173C9.20963 10.8967 9.4742 10.7199 9.69706 10.4971C9.91992 10.2742 10.0967 10.0096 10.2173 9.71843C10.3379 9.42725 10.4 9.11517 10.4 8.79999C10.4 8.48482 10.3379 8.17274 10.2173 7.88155C10.0967 7.59037 9.91992 7.3258 9.69706 7.10294C9.4742 6.88008 9.20963 6.70329 8.91845 6.58268C8.62726 6.46207 8.31518 6.39999 8.00001 6.39999C7.36349 6.39999 6.75304 6.65285 6.30295 7.10294C5.85286 7.55303 5.60001 8.16348 5.60001 8.79999C5.60001 9.43651 5.85286 10.047 6.30295 10.4971C6.75304 10.9471 7.36349 11.2 8.00001 11.2Z" fill="white"/>
</svg>
