<svg width="16" height="16" viewBox="0 0 16 16" fill="none" xmlns="http://www.w3.org/2000/svg">
<path d="M1.60001 4.80001C1.60001 4.37567 1.76858 3.9687 2.06864 3.66864C2.36869 3.36858 2.77566 3.20001 3.20001 3.20001H8.00001C8.42435 3.20001 8.83132 3.36858 9.13138 3.66864C9.43143 3.9687 9.60001 4.37567 9.60001 4.80001V11.2C9.60001 11.6244 9.43143 12.0313 9.13138 12.3314C8.83132 12.6314 8.42435 12.8 8.00001 12.8H3.20001C2.77566 12.8 2.36869 12.6314 2.06864 12.3314C1.76858 12.0313 1.60001 11.6244 1.60001 11.2V4.80001ZM11.6424 5.68481C11.5095 5.7512 11.3978 5.85327 11.3196 5.97959C11.2415 6.10591 11.2001 6.25148 11.2 6.40001V9.60001C11.2001 9.74854 11.2415 9.89412 11.3196 10.0204C11.3978 10.1467 11.5095 10.2488 11.6424 10.3152L13.2424 11.1152C13.3643 11.1761 13.4998 11.2049 13.636 11.1988C13.7722 11.1926 13.9045 11.1518 14.0205 11.0802C14.1365 11.0085 14.2322 10.9084 14.2986 10.7894C14.365 10.6704 14.3999 10.5363 14.4 10.4V5.60001C14.3999 5.4637 14.365 5.32967 14.2986 5.21063C14.2322 5.09159 14.1365 4.9915 14.0205 4.91986C13.9045 4.84821 13.7722 4.80738 13.636 4.80125C13.4998 4.79512 13.3643 4.82388 13.2424 4.88481L11.6424 5.68481Z" fill="white"/>
</svg>
