<svg width="196" height="35" viewBox="0 0 196 35" fill="none" xmlns="http://www.w3.org/2000/svg">
<g id="Logo">
<path id="Vector" fill-rule="evenodd" clip-rule="evenodd" d="M9.8238 8.6282C8.309 8.6282 6.9902 9.3268 5.866 10.7226V3.094C5.866 2.5452 5.866 2.1462 5.817 1.897C5.75171 1.58047 5.6359 1.27652 5.474 0.9968C5.2304 0.399 4.3988 0.0504 2.982 0.0504C1.5148 0.0504 0.6356 0.399 0.3416 0.9968C0.199843 1.28027 0.100773 1.58315 0.0476 1.8956C0 2.1448 0 2.5438 0 3.0436V23.6418C0 24.1892 0 24.5882 0.049 24.8374C0.098 25.0866 0.196 25.3876 0.343 25.7362C0.6356 26.334 1.5148 26.6826 2.933 26.6826C4.3498 26.6826 5.229 26.3844 5.523 25.7866C5.719 25.4366 5.817 25.137 5.866 24.8878C5.9136 24.6386 5.9136 24.2396 5.9136 23.6908V17.0072C6.0116 16.4094 6.3546 15.8102 6.9412 15.3608C7.52893 14.8679 8.27421 14.6026 9.0412 14.6132C9.8252 14.6132 10.5084 14.8624 10.997 15.4112C11.5346 15.96 11.7796 16.6572 11.7796 17.6064V23.6404C11.7796 24.1892 11.7796 24.5882 11.8286 24.8878C11.8776 25.1874 11.9756 25.4856 12.1702 25.8356C12.5132 26.4334 13.3434 26.733 14.7126 26.733C16.1294 26.733 17.0086 26.4334 17.3026 25.8356C17.4986 25.4856 17.5966 25.1874 17.6456 24.9382C17.6932 24.6876 17.6932 24.2886 17.6932 23.7412V17.6064C17.6932 15.0626 16.961 12.9668 15.4448 11.2224C13.979 9.4766 12.0722 8.6282 9.8238 8.6282ZM76.6402 21.3962L72.1434 17.605L75.467 14.714C76.2986 14.014 76.7382 13.3658 76.7382 12.8674C76.7382 12.32 76.3966 11.6214 75.663 10.6736C74.9294 9.7258 74.2938 9.2764 73.7072 9.2764C73.1206 9.2764 72.485 9.576 71.7038 10.2242L71.3118 10.5238C70.9212 10.8738 70.2856 11.4716 69.4554 12.2696C68.6238 13.1166 68.0372 13.6654 67.5976 14.0154V3.0422C67.5976 2.5942 67.5976 2.2946 67.5486 2.0944C67.5486 1.3958 67.305 0.8974 66.962 0.5992C66.5224 0.2002 65.7412 0 64.666 0C63.2478 0 62.3686 0.2996 62.0256 0.9478C61.8786 1.2978 61.782 1.596 61.7316 1.8452C61.684 2.0944 61.684 2.4934 61.684 3.0422V23.6404C61.684 24.1892 61.684 24.5882 61.733 24.8374C61.782 25.0866 61.8786 25.3862 62.027 25.7348C62.3196 26.334 63.1988 26.684 64.617 26.684C66.0338 26.684 66.913 26.3844 67.207 25.7852C67.403 25.4366 67.501 25.137 67.5486 24.8892C67.5976 24.6386 67.5976 24.2396 67.5976 23.6908V21.0476C68.1352 21.4956 68.9668 22.2936 70.042 23.3912C71.1172 24.4888 71.8998 25.2364 72.436 25.6872L72.779 25.935C73.6582 26.5832 74.3428 26.9332 74.8314 26.9332C75.4194 26.9332 76.1026 26.4348 76.8362 25.4856C77.5208 24.5392 77.8624 23.7916 77.8624 23.2414C77.8665 22.9949 77.7983 22.7525 77.6664 22.5442C77.5684 22.2446 77.2268 21.8442 76.6402 21.3962ZM96.8758 9.4262C96.5818 8.8284 95.7026 8.4784 94.2858 8.4784C92.8676 8.4784 91.9884 8.778 91.6958 9.3772C91.4998 9.7258 91.4018 10.0254 91.3528 10.2732C91.3038 10.5238 91.3038 10.9228 91.3038 11.4716V17.556C91.3038 18.4534 91.0098 19.152 90.4736 19.7008C89.9346 20.2496 89.2024 20.5492 88.3218 20.5492C87.4426 20.5492 86.709 20.2986 86.2218 19.7512C85.6828 19.2024 85.4378 18.5038 85.4378 17.556V11.571C85.4378 10.773 85.3902 10.1752 85.2418 9.8252C84.9492 8.9782 84.07 8.5288 82.4558 8.5288C81.039 8.5288 80.1598 8.8284 79.8182 9.4766C79.6712 9.8266 79.5732 10.1248 79.5242 10.374C79.4752 10.6232 79.4752 11.0222 79.4752 11.571V17.605C79.4752 20.1502 80.2088 22.2446 81.7236 24.0394C83.2384 25.7852 85.0976 26.6826 87.3936 26.6826C88.2728 26.6826 89.1044 26.4334 89.8856 25.935C90.1796 25.7362 90.4736 25.487 90.8152 25.1874C91.1092 24.8878 91.3528 24.6386 91.4018 24.4874C91.4018 25.0376 91.4998 25.4856 91.7434 25.8846C92.0374 26.4334 92.9166 26.733 94.2858 26.733C95.7026 26.733 96.5342 26.4334 96.8758 25.8356C97.0718 25.536 97.1698 25.2364 97.2174 24.9382C97.2664 24.6876 97.2664 24.2886 97.2664 23.7902V11.522C97.2664 10.9746 97.2664 10.5756 97.2174 10.325C97.1194 10.0758 97.0214 9.7776 96.8758 9.429M111.245 19.4516C110.66 20.0494 109.974 20.349 109.144 20.349C108.312 20.349 107.629 20.0494 107.141 19.4516C106.638 18.9087 106.358 18.1965 106.357 17.4566C106.357 16.758 106.602 16.0594 107.141 15.4126C107.678 14.8134 108.363 14.4634 109.193 14.4634C110.074 14.4634 110.757 14.763 111.294 15.3622C111.832 15.96 112.126 16.6586 112.126 17.4062C112.126 18.1552 111.832 18.8524 111.245 19.4502M110.219 8.5792C108.363 8.5792 107.041 9.177 106.211 10.374C106.163 9.7762 105.918 9.3268 105.479 9.0272C105.039 8.7276 104.257 8.5792 103.085 8.5792C101.909 8.5792 101.129 8.8774 100.835 9.5256C100.701 9.7946 100.602 10.0798 100.541 10.374C100.492 10.6232 100.492 11.0222 100.492 11.522V31.6204C100.492 32.1692 100.492 32.5192 100.542 32.7684C100.603 33.0621 100.702 33.3468 100.835 33.6154C100.982 33.915 101.275 34.1642 101.714 34.3154C102.154 34.4638 102.691 34.5142 103.376 34.5142C104.062 34.5142 104.647 34.4638 105.039 34.314C105.43 34.1642 105.722 33.964 105.918 33.6154C106.064 33.2668 106.212 32.9672 106.212 32.7194C106.26 32.4688 106.26 32.0698 106.26 31.5714V24.5882C107.092 25.6354 108.41 26.1842 110.268 26.1842C112.126 26.1842 113.837 25.2868 115.499 23.541C117.111 21.7952 117.942 19.7008 117.942 17.3572C117.942 15.0122 117.111 12.9682 115.499 11.172C113.788 9.4766 112.028 8.5792 110.219 8.5792ZM130.845 19.3522C130.308 19.95 129.625 20.2482 128.793 20.2482C127.963 20.2482 127.278 19.95 126.692 19.3522C126.104 18.753 125.811 18.1048 125.811 17.3572C125.811 16.6082 126.105 15.9096 126.643 15.3118C126.905 15.013 127.228 14.7738 127.591 14.6104C127.953 14.4469 128.346 14.3629 128.744 14.364C129.625 14.364 130.308 14.6636 130.845 15.3118C131.383 15.96 131.628 16.6082 131.628 17.3558C131.677 18.1048 131.383 18.753 130.845 19.3522ZM137.298 9.3758C137.151 9.0272 136.858 8.8284 136.417 8.6786C136.027 8.5288 135.391 8.4784 134.512 8.4784C133.631 8.4784 132.996 8.6282 132.605 8.9768C132.215 9.3268 131.97 9.7748 131.921 10.4244C131.756 10.1962 131.576 9.97919 131.383 9.7748C131.139 9.5256 130.7 9.2764 130.063 8.9768C129.405 8.67133 128.688 8.51819 127.963 8.5288C126.007 8.5288 124.197 9.4262 122.587 11.172C120.924 12.9178 120.142 15.0122 120.142 17.3572C120.142 19.7008 120.973 21.7462 122.585 23.4906C124.198 25.2364 125.959 26.1352 127.816 26.1352C129.674 26.1352 131.041 25.5864 131.873 24.3894V25.4366C131.873 26.3844 131.579 27.2314 131.041 27.93C130.504 28.63 129.819 28.9772 128.94 28.9772C127.669 28.9772 126.496 28.5292 125.42 27.6808C125.079 27.3826 124.736 27.2818 124.443 27.2818C124.14 27.2826 123.846 27.3884 123.612 27.5814C123.248 27.8749 122.921 28.2093 122.634 28.5782C121.95 29.2768 121.608 30.0748 121.608 30.9722C121.608 31.6708 122.391 32.4184 123.953 33.2668C125.518 34.1152 127.131 34.5632 128.842 34.5632C131.09 34.5632 133.094 33.7652 134.904 32.1202C136.71 30.5242 137.592 28.3794 137.592 25.7362V11.4212C137.592 10.8724 137.592 10.5238 137.542 10.2732C137.542 10.0254 137.444 9.7244 137.298 9.3758ZM158.266 9.4262C157.972 8.8284 157.094 8.4784 155.676 8.4784C154.258 8.4784 153.378 8.778 153.086 9.3772C152.89 9.7258 152.792 10.0254 152.743 10.2732C152.695 10.5238 152.695 10.9228 152.695 11.4716V17.556C152.695 18.4534 152.401 19.152 151.864 19.7008C151.326 20.2496 150.592 20.5492 149.713 20.5492C148.833 20.5492 148.099 20.2986 147.61 19.7512C147.074 19.2024 146.829 18.5038 146.829 17.556V11.571C146.829 10.773 146.78 10.1752 146.633 9.8252C146.341 8.9782 145.46 8.5288 143.847 8.5288C142.43 8.5288 141.551 8.8284 141.208 9.4766C141.061 9.8266 140.965 10.1248 140.914 10.374C140.865 10.6232 140.865 11.0222 140.865 11.571V17.605C140.865 20.1502 141.599 22.2446 143.114 24.0394C144.63 25.7852 146.488 26.6826 148.784 26.6826C149.664 26.6826 150.496 26.4334 151.276 25.935C151.57 25.7362 151.864 25.487 152.205 25.1874C152.499 24.8878 152.743 24.6386 152.793 24.4874C152.793 25.0376 152.89 25.4856 153.133 25.8846C153.427 26.4334 154.307 26.733 155.676 26.733C157.094 26.733 157.924 26.4334 158.266 25.8356C158.462 25.536 158.56 25.2364 158.609 24.9382C158.658 24.6876 158.658 24.2886 158.658 23.7902V11.522C158.658 10.9746 158.658 10.5756 158.609 10.325C158.543 10.0099 158.427 9.70732 158.266 9.429M173.957 8.7276C173.576 8.59309 173.183 8.49328 172.784 8.4294C172.347 8.36332 171.906 8.32963 171.464 8.3286C170.926 8.3286 170.339 8.5288 169.606 8.9278C168.921 9.3268 168.433 9.6264 168.238 9.8756C168.042 10.1248 167.846 10.3236 167.748 10.4734C167.748 10.0744 167.602 9.7258 167.357 9.3254C167.016 8.778 166.184 8.5274 164.816 8.5274C163.398 8.5274 162.519 8.8284 162.176 9.4766C162.035 9.7597 161.936 10.0621 161.883 10.374C161.834 10.6232 161.834 11.0222 161.834 11.571V24.64C161.883 25.2882 162.078 25.788 162.421 26.1366C162.91 26.5356 163.692 26.7344 164.767 26.7344C166.184 26.7344 167.063 26.4348 167.406 25.837C167.602 25.487 167.7 25.1888 167.749 24.9396C167.797 24.689 167.797 24.29 167.797 23.7426V16.4598C167.797 15.862 168.042 15.3118 168.581 14.8638C169.117 14.4158 169.655 14.2156 170.29 14.2156C170.877 14.2156 171.366 14.315 171.756 14.5152C172.148 14.714 172.539 14.8148 172.929 14.8148C173.761 14.8148 174.348 14.3668 174.787 13.517C175.227 12.67 175.423 11.823 175.423 11.123C175.423 10.3754 175.276 9.877 174.983 9.527C174.738 9.128 174.348 8.8774 173.957 8.7276Z" fill="white"/>
<g id="Group">
<g id="Mask group">
<mask id="mask0_35_5643" style="mask-type:luminance" maskUnits="userSpaceOnUse" x="177" y="8" width="19" height="19">
<g id="Group_2">
<path id="Vector_2" d="M195.706 8.0014V26.2546H177.915V8H195.706V8.0014Z" fill="white"/>
</g>
</mask>
<g mask="url(#mask0_35_5643)">
<path id="Vector_3" fill-rule="evenodd" clip-rule="evenodd" d="M195.608 9.84666C195.54 9.53807 195.442 9.23699 195.314 8.94786C195.023 8.35146 194.144 8.00146 192.726 8.00146C191.309 8.00146 190.43 8.30106 190.136 8.90026C189.94 9.25026 189.842 9.54846 189.794 9.79766C189.745 10.0469 189.745 10.4459 189.745 10.9947V17.0791C189.745 17.9765 189.451 18.6751 188.913 19.2239C188.376 19.7727 187.644 20.0723 186.763 20.0723C185.884 20.0723 185.15 19.8231 184.662 19.2743C184.124 18.7255 183.879 18.0269 183.879 17.0791V11.0927C183.879 10.2947 183.83 9.69686 183.683 9.34686C183.389 8.49986 182.511 8.05046 180.897 8.05046C179.479 8.05046 178.601 8.35146 178.257 8.99826C178.111 9.34826 178.013 9.64646 177.963 9.89566C177.915 10.1449 177.915 10.5439 177.915 11.0927V17.1267C177.915 19.6719 178.649 21.7663 180.163 23.5625C181.678 25.3573 183.536 26.2057 185.833 26.2057C186.713 26.2057 187.544 25.9565 188.325 25.4567C188.65 25.2258 188.96 24.9762 189.255 24.7091C189.549 24.4095 189.793 24.1603 189.842 24.0091C189.842 24.5593 189.94 25.0073 190.183 25.4077C190.477 25.9565 191.356 26.2547 192.726 26.2547C194.142 26.2547 194.974 25.9565 195.316 25.3573C195.512 25.0577 195.61 24.7581 195.657 24.4599C195.706 24.2107 195.706 23.8117 195.706 23.3119V11.0437C195.657 10.5439 195.657 10.1449 195.608 9.84666Z" fill="white"/>
</g>
</g>
</g>
<path id="Vector_4" fill-rule="evenodd" clip-rule="evenodd" d="M50.4421 20.8476C49.996 21.1797 49.4872 21.4179 48.9465 21.5478C48.4057 21.6777 47.8443 21.6966 47.296 21.6035C46.7477 21.5103 46.224 21.307 45.7565 21.0057C45.2891 20.7045 44.8875 20.3116 44.5761 19.8508C43.2083 17.9048 43.6479 15.2126 45.5547 13.8658C46.0008 13.5337 46.5096 13.2956 47.0504 13.1656C47.5911 13.0357 48.1526 13.0168 48.7009 13.11C49.2491 13.2031 49.7728 13.4065 50.2403 13.7077C50.7078 14.0089 51.1093 14.4018 51.4207 14.8626C52.7395 16.8086 52.2999 19.5008 50.4421 20.8476ZM33.5791 20.8476C33.133 21.1797 32.6242 21.4179 32.0835 21.5478C31.5427 21.6777 30.9813 21.6966 30.433 21.6035C29.8847 21.5103 29.361 21.307 28.8935 21.0057C28.4261 20.7045 28.0245 20.3116 27.7131 19.8508C26.3453 17.9048 26.7849 15.2126 28.6917 13.8658C29.1378 13.5337 29.6466 13.2956 30.1874 13.1656C30.7281 13.0357 31.2896 13.0168 31.8379 13.11C32.3861 13.2031 32.9098 13.4065 33.3773 13.7077C33.8448 14.0089 34.2463 14.4018 34.5577 14.8626C35.8765 16.8086 35.4369 19.5008 33.5791 20.8476ZM47.9991 6.58301C44.5271 6.58301 41.4975 8.27981 39.5431 10.923C38.5803 9.57929 37.3109 8.4846 35.8403 7.72979C34.3696 6.97499 32.7402 6.58185 31.0871 6.58301C25.2701 6.58301 20.5283 11.4214 20.5283 17.3574C20.5283 23.292 25.2701 28.1304 31.0871 28.1304C34.5563 28.1304 37.5873 26.4336 39.5431 23.7904C40.506 25.134 41.7754 26.2287 43.246 26.9835C44.7167 27.7383 46.3461 28.1315 47.9991 28.1304C53.8147 28.1304 58.5551 23.292 58.5551 17.3574C58.5075 11.4214 53.8147 6.58301 47.9991 6.58301Z" fill="white"/>
</g>
</svg>
